<?xml version="1.0" encoding="UTF-8" standalone="no"?>
<!-- Created with Inkscape (http://www.inkscape.org/) -->

<svg
   xmlns:dc="http://purl.org/dc/elements/1.1/"
   xmlns:cc="http://creativecommons.org/ns#"
   xmlns:rdf="http://www.w3.org/1999/02/22-rdf-syntax-ns#"
   xmlns:svg="http://www.w3.org/2000/svg"
   xmlns="http://www.w3.org/2000/svg"
   xmlns:sodipodi="http://sodipodi.sourceforge.net/DTD/sodipodi-0.dtd"
   xmlns:inkscape="http://www.inkscape.org/namespaces/inkscape"
   width="421.73788mm"
   height="43.411621mm"
   viewBox="0 0 421.73788 43.411621"
   version="1.1"
   id="svg2167"
   inkscape:version="0.92.3 (2405546, 2018-03-11)"
   sodipodi:docname="commonwealthrobotics.svg">
  <defs
     id="defs2161" />
  <sodipodi:namedview
     id="base"
     pagecolor="#ffffff"
     bordercolor="#666666"
     borderopacity="1.0"
     inkscape:pageopacity="0.0"
     inkscape:pageshadow="2"
     inkscape:zoom="0.49497475"
     inkscape:cx="706.96807"
     inkscape:cy="-383.35385"
     inkscape:document-units="mm"
     inkscape:current-layer="layer1"
     showgrid="false"
     fit-margin-top="0"
     fit-margin-left="0"
     fit-margin-right="0"
     fit-margin-bottom="0"
     inkscape:window-width="1680"
     inkscape:window-height="975"
     inkscape:window-x="0"
     inkscape:window-y="0"
     inkscape:window-maximized="1" />
  <metadata
     id="metadata2164">
    <rdf:RDF>
      <cc:Work
         rdf:about="">
        <dc:format>image/svg+xml</dc:format>
        <dc:type
           rdf:resource="http://purl.org/dc/dcmitype/StillImage" />
        <dc:title></dc:title>
      </cc:Work>
    </rdf:RDF>
  </metadata>
  <g
     inkscape:label="Layer 1"
     inkscape:groupmode="layer"
     id="layer1"
     transform="translate(279.66061,16.50343)">
    <g
       id="g624"
       transform="matrix(0.35277777,0,0,-0.35277777,-236.79811,5.2123595)">
      <path
         d="m 0,0 c 0,-33.137 -26.862,-60 -60,-60 -33.138,0 -60,26.863 -60,60 0,33.137 26.862,60 60,60"
         style="fill:none;stroke:#231f20;stroke-width:3;stroke-linecap:butt;stroke-linejoin:miter;stroke-miterlimit:4;stroke-dasharray:none;stroke-opacity:1"
         id="path626"
         inkscape:connector-curvature="0" />
    </g>
    <g
       id="g628"
       transform="matrix(0.35277777,0,0,-0.35277777,-217.76638,0.97867352)">
      <path
         d="m 0,0 c 0,-13.255 -10.746,-24.001 -24.001,-24.001 -13.255,0 -24.001,10.746 -24.001,24.001 0,13.256 10.746,24.001 24.001,24.001 C -10.746,24.001 0,13.256 0,0 Z"
         style="fill:none;stroke:#231f20;stroke-width:3;stroke-linecap:butt;stroke-linejoin:miter;stroke-miterlimit:4;stroke-dasharray:none;stroke-opacity:1"
         id="path630"
         inkscape:connector-curvature="0" />
    </g>
    <g
       id="g632"
       transform="matrix(0.35277777,0,0,-0.35277777,-215.47816,9.4456925)">
      <path
         d="M 0,0 V 72"
         style="fill:none;stroke:#231f20;stroke-width:3;stroke-linecap:butt;stroke-linejoin:miter;stroke-miterlimit:4;stroke-dasharray:none;stroke-opacity:1"
         id="path634"
         inkscape:connector-curvature="0" />
    </g>
    <g
       id="g636"
       transform="matrix(0.35277777,0,0,-0.35277777,-215.47816,-15.954307)">
      <path
         d="M 0,0 23.977,-23.976"
         style="fill:none;stroke:#231f20;stroke-width:3;stroke-linecap:butt;stroke-linejoin:miter;stroke-miterlimit:4;stroke-dasharray:none;stroke-opacity:1"
         id="path638"
         inkscape:connector-curvature="0" />
    </g>
    <g
       id="g640"
       transform="matrix(0.35277777,0,0,-0.35277777,-198.56168,-15.954483)">
      <path
         d="M 0,0 -23.976,-23.977"
         style="fill:none;stroke:#231f20;stroke-width:3;stroke-linecap:butt;stroke-linejoin:miter;stroke-miterlimit:4;stroke-dasharray:none;stroke-opacity:1"
         id="path642"
         inkscape:connector-curvature="0" />
    </g>
    <g
       id="g644"
       transform="matrix(0.35277777,0,0,-0.35277777,-198.56168,9.4455165)">
      <path
         d="M 0,0 V 72"
         style="fill:none;stroke:#231f20;stroke-width:3;stroke-linecap:butt;stroke-linejoin:miter;stroke-miterlimit:4;stroke-dasharray:none;stroke-opacity:1"
         id="path646"
         inkscape:connector-curvature="0" />
    </g>
    <g
       id="g648"
       transform="matrix(0.35277777,0,0,-0.35277777,-196.42816,9.4456925)">
      <path
         d="M 0,0 V 72"
         style="fill:none;stroke:#231f20;stroke-width:3;stroke-linecap:butt;stroke-linejoin:miter;stroke-miterlimit:4;stroke-dasharray:none;stroke-opacity:1"
         id="path650"
         inkscape:connector-curvature="0" />
    </g>
    <g
       id="g652"
       transform="matrix(0.35277777,0,0,-0.35277777,-196.42816,-15.954307)">
      <path
         d="M 0,0 23.977,-23.976"
         style="fill:none;stroke:#231f20;stroke-width:3;stroke-linecap:butt;stroke-linejoin:miter;stroke-miterlimit:4;stroke-dasharray:none;stroke-opacity:1"
         id="path654"
         inkscape:connector-curvature="0" />
    </g>
    <g
       id="g656"
       transform="matrix(0.35277777,0,0,-0.35277777,-179.51168,-15.954483)">
      <path
         d="M 0,0 -23.976,-23.977"
         style="fill:none;stroke:#231f20;stroke-width:3;stroke-linecap:butt;stroke-linejoin:miter;stroke-miterlimit:4;stroke-dasharray:none;stroke-opacity:1"
         id="path658"
         inkscape:connector-curvature="0" />
    </g>
    <g
       id="g660"
       transform="matrix(0.35277777,0,0,-0.35277777,-179.51168,9.4455165)">
      <path
         d="M 0,0 V 72"
         style="fill:none;stroke:#231f20;stroke-width:3;stroke-linecap:butt;stroke-linejoin:miter;stroke-miterlimit:4;stroke-dasharray:none;stroke-opacity:1"
         id="path662"
         inkscape:connector-curvature="0" />
    </g>
    <g
       id="g664"
       transform="matrix(0.35277777,0,0,-0.35277777,-159.73857,0.97867352)">
      <path
         d="m 0,0 c 0,-13.255 -10.746,-24.001 -24.002,-24.001 -13.255,0 -24,10.746 -24,24.001 0,13.256 10.745,24.001 24,24.001 C -10.746,24.001 0,13.256 0,0 Z"
         style="fill:none;stroke:#231f20;stroke-width:3;stroke-linecap:butt;stroke-linejoin:miter;stroke-miterlimit:4;stroke-dasharray:none;stroke-opacity:1"
         id="path666"
         inkscape:connector-curvature="0" />
    </g>
    <g
       id="g668"
       transform="matrix(0.35277777,0,0,-0.35277777,-155.97583,9.4456925)">
      <path
         d="M 0,0 V 72"
         style="fill:none;stroke:#231f20;stroke-width:3;stroke-linecap:butt;stroke-linejoin:miter;stroke-miterlimit:4;stroke-dasharray:none;stroke-opacity:1"
         id="path670"
         inkscape:connector-curvature="0" />
    </g>
    <g
       id="g672"
       transform="matrix(0.35277777,0,0,-0.35277777,-155.97583,-15.954307)">
      <path
         d="M 0,0 23.976,-23.976"
         style="fill:none;stroke:#231f20;stroke-width:3;stroke-linecap:butt;stroke-linejoin:miter;stroke-miterlimit:4;stroke-dasharray:none;stroke-opacity:1"
         id="path674"
         inkscape:connector-curvature="0" />
    </g>
    <g
       id="g676"
       transform="matrix(0.35277777,0,0,-0.35277777,-147.51779,9.4456925)">
      <path
         d="M 0,0 V 72"
         style="fill:none;stroke:#231f20;stroke-width:3;stroke-linecap:butt;stroke-linejoin:miter;stroke-miterlimit:4;stroke-dasharray:none;stroke-opacity:1"
         id="path678"
         inkscape:connector-curvature="0" />
    </g>
    <g
       id="g680"
       transform="matrix(0.35277777,0,0,-0.35277777,-139.63093,-15.954307)">
      <path
         d="M 0,0 69.707,-120.736"
         style="fill:none;stroke:#231f20;stroke-width:3;stroke-linecap:butt;stroke-linejoin:miter;stroke-miterlimit:4;stroke-dasharray:none;stroke-opacity:1"
         id="path682"
         inkscape:connector-curvature="0" />
    </g>
    <g
       id="g684"
       transform="matrix(0.35277777,0,0,-0.35277777,-110.13748,-16.238857)">
      <path
         d="M 0,0 -42.033,-72.807"
         style="fill:none;stroke:#231f20;stroke-width:3;stroke-linecap:butt;stroke-linejoin:miter;stroke-miterlimit:4;stroke-dasharray:none;stroke-opacity:1"
         id="path686"
         inkscape:connector-curvature="0" />
    </g>
    <g
       id="g688"
       transform="matrix(0.35277777,0,0,-0.35277777,-90.448751,-15.954307)">
      <path
         d="M 0,0 -69.707,-120.736"
         style="fill:none;stroke:#231f20;stroke-width:3;stroke-linecap:butt;stroke-linejoin:miter;stroke-miterlimit:4;stroke-dasharray:none;stroke-opacity:1"
         id="path690"
         inkscape:connector-curvature="0" />
    </g>
    <g
       id="g692"
       transform="matrix(0.35277777,0,0,-0.35277777,-119.94154,-16.238857)">
      <path
         d="M 0,0 42.033,-72.807"
         style="fill:none;stroke:#231f20;stroke-width:3;stroke-linecap:butt;stroke-linejoin:miter;stroke-miterlimit:4;stroke-dasharray:none;stroke-opacity:1"
         id="path694"
         inkscape:connector-curvature="0" />
    </g>
    <g
       id="g696"
       transform="matrix(0.35277777,0,0,-0.35277777,-83.711531,9.4456925)">
      <path
         d="m 0,0 c -13.254,0 -24,10.746 -24,24.001 0,13.256 10.746,24.001 24,24.001 13.256,0 24.002,-10.745 24.002,-24.001"
         style="fill:none;stroke:#231f20;stroke-width:3;stroke-linecap:butt;stroke-linejoin:miter;stroke-miterlimit:4;stroke-dasharray:none;stroke-opacity:1"
         id="path698"
         inkscape:connector-curvature="0" />
    </g>
    <g
       id="g700"
       transform="matrix(0.35277777,0,0,-0.35277777,-75.244151,0.97867352)">
      <path
         d="M 0,0 H -48.002"
         style="fill:none;stroke:#231f20;stroke-width:3;stroke-linecap:butt;stroke-linejoin:miter;stroke-miterlimit:4;stroke-dasharray:none;stroke-opacity:1"
         id="path702"
         inkscape:connector-curvature="0" />
    </g>
    <g
       id="g704"
       transform="matrix(0.35277777,0,0,-0.35277777,-54.512251,1.0205485)">
      <path
         d="m 0,0 c 0,-13.255 -10.744,-24.001 -24,-24.001 -13.256,0 -24.002,10.746 -24.002,24.001 0,13.256 10.746,24.001 24.002,24.001 C -10.744,24.001 0,13.256 0,0 Z"
         style="fill:none;stroke:#231f20;stroke-width:3;stroke-linecap:butt;stroke-linejoin:miter;stroke-miterlimit:4;stroke-dasharray:none;stroke-opacity:1"
         id="path706"
         inkscape:connector-curvature="0" />
    </g>
    <g
       id="g708"
       transform="matrix(0.35277777,0,0,-0.35277777,-29.446441,-7.4960714)">
      <path
         d="M 0,0 C 13.256,0 24,-10.746 24,-24.001"
         style="fill:none;stroke:#231f20;stroke-width:3;stroke-linecap:butt;stroke-linejoin:miter;stroke-miterlimit:4;stroke-dasharray:none;stroke-opacity:1"
         id="path710"
         inkscape:connector-curvature="0" />
    </g>
    <g
       id="g712"
       transform="matrix(0.35277777,0,0,-0.35277777,-42.268391,9.4875325)">
      <path
         d="M 0,0 C -13.256,0 -24.002,10.746 -24.002,24.001"
         style="fill:none;stroke:#231f20;stroke-width:3;stroke-linecap:butt;stroke-linejoin:miter;stroke-miterlimit:4;stroke-dasharray:none;stroke-opacity:1"
         id="path714"
         inkscape:connector-curvature="0" />
    </g>
    <g
       id="g716"
       transform="matrix(0.35277777,0,0,-0.35277777,-62.978911,-15.954307)">
      <path
         d="M 0,0 C 13.256,0 24,-10.746 24,-24.001"
         style="fill:none;stroke:#231f20;stroke-width:3;stroke-linecap:butt;stroke-linejoin:miter;stroke-miterlimit:4;stroke-dasharray:none;stroke-opacity:1"
         id="path718"
         inkscape:connector-curvature="0" />
    </g>
    <g
       id="g720"
       transform="matrix(0.35277777,0,0,-0.35277777,-71.446301,-7.487111)">
      <path
         d="M 0,0 C 0,13.256 10.746,24.001 24.002,24.001"
         style="fill:none;stroke:#231f20;stroke-width:3;stroke-linecap:butt;stroke-linejoin:miter;stroke-miterlimit:4;stroke-dasharray:none;stroke-opacity:1"
         id="path722"
         inkscape:connector-curvature="0" />
    </g>
    <g
       id="g724"
       transform="matrix(0.35277777,0,0,-0.35277777,-54.512251,-7.487111)">
      <path
         d="M 0,0 V -24.116"
         style="fill:none;stroke:#231f20;stroke-width:3;stroke-linecap:butt;stroke-linejoin:miter;stroke-miterlimit:4;stroke-dasharray:none;stroke-opacity:1"
         id="path726"
         inkscape:connector-curvature="0" />
    </g>
    <g
       id="g728"
       transform="matrix(0.35277777,0,0,-0.35277777,-50.735741,1.0205485)">
      <path
         d="M 0,0 V 48.118"
         style="fill:none;stroke:#231f20;stroke-width:3;stroke-linecap:butt;stroke-linejoin:miter;stroke-miterlimit:4;stroke-dasharray:none;stroke-opacity:1"
         id="path730"
         inkscape:connector-curvature="0" />
    </g>
    <g
       id="g732"
       transform="matrix(0.35277777,0,0,-0.35277777,-33.801031,9.4875325)">
      <path
         d="M 0,0 C -13.256,0 -24.002,10.746 -24.002,24.001"
         style="fill:none;stroke:#231f20;stroke-width:3;stroke-linecap:butt;stroke-linejoin:miter;stroke-miterlimit:4;stroke-dasharray:none;stroke-opacity:1"
         id="path734"
         inkscape:connector-curvature="0" />
    </g>
    <g
       id="g736"
       transform="matrix(0.35277777,0,0,-0.35277777,-42.268391,1.0205485)">
      <path
         d="M 0,0 V 48.118"
         style="fill:none;stroke:#231f20;stroke-width:3;stroke-linecap:butt;stroke-linejoin:miter;stroke-miterlimit:4;stroke-dasharray:none;stroke-opacity:1"
         id="path738"
         inkscape:connector-curvature="0" />
    </g>
    <g
       id="g740"
       transform="matrix(0.35277777,0,0,-0.35277777,-42.268391,-7.4960714)">
      <path
         d="M 0,0 H 24.002"
         style="fill:none;stroke:#231f20;stroke-width:3;stroke-linecap:butt;stroke-linejoin:miter;stroke-miterlimit:4;stroke-dasharray:none;stroke-opacity:1"
         id="path742"
         inkscape:connector-curvature="0" />
    </g>
    <g
       id="g744"
       transform="matrix(0.35277777,0,0,-0.35277777,-30.386961,-15.954483)">
      <path
         d="M 0,0 V -72"
         style="fill:none;stroke:#231f20;stroke-width:3;stroke-linecap:butt;stroke-linejoin:miter;stroke-miterlimit:4;stroke-dasharray:none;stroke-opacity:1"
         id="path746"
         inkscape:connector-curvature="0" />
    </g>
    <g
       id="g748"
       transform="matrix(0.35277777,0,0,-0.35277777,-20.979781,0.97108852)">
      <path
         d="M 0,0 V -23.333"
         style="fill:none;stroke:#231f20;stroke-width:3;stroke-linecap:butt;stroke-linejoin:miter;stroke-miterlimit:4;stroke-dasharray:none;stroke-opacity:1"
         id="path750"
         inkscape:connector-curvature="0" />
    </g>
    <g
       id="g752"
       transform="matrix(0.35277777,0,0,-0.35277777,-1.1387915,-15.954307)">
      <path
         d="M 0,0 V -120"
         style="fill:none;stroke:#231f20;stroke-width:3;stroke-linecap:butt;stroke-linejoin:miter;stroke-miterlimit:4;stroke-dasharray:none;stroke-opacity:1"
         id="path754"
         inkscape:connector-curvature="0" />
    </g>
    <g
       id="g756"
       transform="matrix(0.35277777,0,0,-0.35277777,24.261209,-3.2543065)">
      <path
         d="m 0,0 c 0,-19.882 -16.119,-36 -36,-36 -19.883,0 -36,16.118 -36,36 0,19.882 16.117,36 36,36 C -16.119,36 0,19.882 0,0 Z"
         style="fill:none;stroke:#231f20;stroke-width:3;stroke-linecap:butt;stroke-linejoin:miter;stroke-miterlimit:4;stroke-dasharray:none;stroke-opacity:1"
         id="path758"
         inkscape:connector-curvature="0" />
    </g>
    <g
       id="g760"
       transform="matrix(0.35277777,0,0,-0.35277777,-1.1387915,-3.2543065)">
      <path
         d="M 0,0 84,-84"
         style="fill:none;stroke:#231f20;stroke-width:3;stroke-linecap:butt;stroke-linejoin:miter;stroke-miterlimit:4;stroke-dasharray:none;stroke-opacity:1"
         id="path762"
         inkscape:connector-curvature="0" />
    </g>
    <g
       id="g764"
       transform="matrix(0.35277777,0,0,-0.35277777,44.166979,0.97867352)">
      <path
         d="m 0,0 c 0,-13.255 -10.746,-24.001 -24.002,-24.001 -13.254,0 -24,10.746 -24,24.001 0,13.256 10.746,24.001 24,24.001 C -10.746,24.001 0,13.256 0,0 Z"
         style="fill:none;stroke:#231f20;stroke-width:3;stroke-linecap:butt;stroke-linejoin:miter;stroke-miterlimit:4;stroke-dasharray:none;stroke-opacity:1"
         id="path766"
         inkscape:connector-curvature="0" />
    </g>
    <g
       id="g768"
       transform="matrix(0.35277777,0,0,-0.35277777,65.333649,0.97867352)">
      <path
         d="m 0,0 c 0,-13.255 -10.746,-24.001 -24.002,-24.001 -13.254,0 -24,10.746 -24,24.001 0,13.256 10.746,24.001 24,24.001 C -10.746,24.001 0,13.256 0,0 Z"
         style="fill:none;stroke:#231f20;stroke-width:3;stroke-linecap:butt;stroke-linejoin:miter;stroke-miterlimit:4;stroke-dasharray:none;stroke-opacity:1"
         id="path770"
         inkscape:connector-curvature="0" />
    </g>
    <g
       id="g772"
       transform="matrix(0.35277777,0,0,-0.35277777,48.399599,0.97867352)">
      <path
         d="M 0,0 V 47.999"
         style="fill:none;stroke:#231f20;stroke-width:3;stroke-linecap:butt;stroke-linejoin:miter;stroke-miterlimit:4;stroke-dasharray:none;stroke-opacity:1"
         id="path774"
         inkscape:connector-curvature="0" />
    </g>
    <g
       id="g776"
       transform="matrix(0.35277777,0,0,-0.35277777,85.441979,0.97867352)">
      <path
         d="m 0,0 c 0,-13.255 -10.746,-24.001 -24.002,-24.001 -13.254,0 -24,10.746 -24,24.001 0,13.256 10.746,24.001 24,24.001 C -10.746,24.001 0,13.256 0,0 Z"
         style="fill:none;stroke:#231f20;stroke-width:3;stroke-linecap:butt;stroke-linejoin:miter;stroke-miterlimit:4;stroke-dasharray:none;stroke-opacity:1"
         id="path778"
         inkscape:connector-curvature="0" />
    </g>
    <g
       id="g780"
       transform="matrix(0.35277777,0,0,-0.35277777,97.435699,9.4456925)">
      <path
         d="M 0,0 C -13.256,0 -24.002,10.746 -24.002,24.001"
         style="fill:none;stroke:#231f20;stroke-width:3;stroke-linecap:butt;stroke-linejoin:miter;stroke-miterlimit:4;stroke-dasharray:none;stroke-opacity:1"
         id="path782"
         inkscape:connector-curvature="0" />
    </g>
    <g
       id="g784"
       transform="matrix(0.35277777,0,0,-0.35277777,88.968369,0.97867352)">
      <path
         d="M 0,0 V 48.118"
         style="fill:none;stroke:#231f20;stroke-width:3;stroke-linecap:butt;stroke-linejoin:miter;stroke-miterlimit:4;stroke-dasharray:none;stroke-opacity:1"
         id="path786"
         inkscape:connector-curvature="0" />
    </g>
    <g
       id="g788"
       transform="matrix(0.35277777,0,0,-0.35277777,88.968369,-7.5379462)">
      <path
         d="M 0,0 H 24.002"
         style="fill:none;stroke:#231f20;stroke-width:3;stroke-linecap:butt;stroke-linejoin:miter;stroke-miterlimit:4;stroke-dasharray:none;stroke-opacity:1"
         id="path790"
         inkscape:connector-curvature="0" />
    </g>
    <g
       id="g792"
       transform="matrix(0.35277777,0,0,-0.35277777,133.08074,-7.4960714)">
      <path
         d="m 0,0 c 13.256,0 24.002,-10.746 24.002,-24.001 0,-13.256 -10.746,-24.001 -24.002,-24.001 -13.254,0 -24,10.745 -24,24.001"
         style="fill:none;stroke:#231f20;stroke-width:3;stroke-linecap:butt;stroke-linejoin:miter;stroke-miterlimit:4;stroke-dasharray:none;stroke-opacity:1"
         id="path794"
         inkscape:connector-curvature="0" />
    </g>
    <g
       id="g796"
       transform="matrix(0.35277777,0,0,-0.35277777,133.08074,-7.4960714)">
      <path
         d="m 0,0 c -6.635,0 -12.014,5.378 -12.014,12.014 0,6.635 5.379,12.013 12.014,12.013 6.635,0 12.014,-5.379 12.014,-12.013"
         style="fill:none;stroke:#231f20;stroke-width:3;stroke-linecap:butt;stroke-linejoin:miter;stroke-miterlimit:4;stroke-dasharray:none;stroke-opacity:1"
         id="path798"
         inkscape:connector-curvature="0" />
    </g>
    <g
       id="g800"
       transform="matrix(0.35277777,0,0,-0.35277777,102.25747,-7.5379462)">
      <path
         d="M 0,0 V -48.143"
         style="fill:none;stroke:#231f20;stroke-width:3;stroke-linecap:butt;stroke-linejoin:miter;stroke-miterlimit:4;stroke-dasharray:none;stroke-opacity:1"
         id="path802"
         inkscape:connector-curvature="0" />
    </g>
    <g
       id="g804"
       transform="matrix(0.35277777,0,0,-0.35277777,122.71926,0.97867352)">
      <path
         d="m 0,0 c 0,-13.255 -10.746,-24.001 -24.002,-24.001 -13.256,0 -24,10.746 -24,24.001 0,13.256 10.744,24.001 24,24.001"
         style="fill:none;stroke:#231f20;stroke-width:3;stroke-linecap:butt;stroke-linejoin:miter;stroke-miterlimit:4;stroke-dasharray:none;stroke-opacity:1"
         id="path806"
         inkscape:connector-curvature="0" />
    </g>
  </g>
</svg>
